<svg width="364" height="335" viewBox="0 0 364 335" fill="none" xmlns="http://www.w3.org/2000/svg">
<path d="M251.139 81.0199C273.038 95.6191 300.23 101.414 312.712 117.295C325.194 133.176 323.021 159.142 321.962 187.17C320.959 215.254 321.07 245.4 304.855 257.993C288.696 270.586 256.154 265.683 227.903 272.815C199.652 280.003 175.692 299.228 151.675 300.453C127.659 301.735 103.587 284.963 87.595 263.12C71.6585 241.277 63.8574 214.307 59.5668 186.613C55.2762 158.919 54.4961 130.501 63.6345 105.036C72.7729 79.5711 91.8299 57.0594 115.567 43.296C139.305 29.5327 167.723 24.5177 190.235 33.7118C212.691 42.9617 229.296 66.365 251.139 81.0199Z" fill="#ED1C24" fill-opacity="0.15"/>
</svg>
