<svg width="505" height="313" viewBox="0 0 505 313" fill="none" xmlns="http://www.w3.org/2000/svg">
<path d="M80 200H46C44.8954 200 44 200.895 44 202V207C44 208.105 44.8954 209 46 209H80C81.1046 209 82 208.105 82 207V202C82 200.895 81.1046 200 80 200Z" fill="#AFB9C5"/>
<path fill-rule="evenodd" clip-rule="evenodd" d="M54 171C58.2931 157.085 60.6988 142.419 61.2169 127H64H65.7831C66.3012 142.419 68.7069 157.085 73 171H79.5C88.0604 171 95 177.94 95 186.5C95 195.06 88.0604 202 79.5 202H46.5C37.9396 202 31 195.06 31 186.5C31 177.94 37.9396 171 46.5 171H54Z" fill="#DDE3E9"/>
<path fill-rule="evenodd" clip-rule="evenodd" d="M27.6222 57.6786C39.0815 56.5595 50.5407 56 62 56C73.4593 56 84.9185 56.5595 96.3778 57.6786L101 137.133C88 138.378 75 139 62 139C49 139 36 138.378 23 137.133L27.6222 57.6786Z" fill="#C5CFD6"/>
<path fill-rule="evenodd" clip-rule="evenodd" d="M21 209H104H125V313H104V231H21V313H0V209H21Z" fill="#F2F2F2"/>
<path fill-rule="evenodd" clip-rule="evenodd" d="M410.381 31.2082C419.214 52.1972 434.229 66.7805 442.182 88.6049C446.898 101.547 448.864 115.62 448.983 130.032C449.048 137.86 448.911 145.694 448.875 153.522C448.839 161.156 448.632 168.741 447.984 176.327C447.332 183.952 446.603 191.487 446.282 199.159C446.031 205.137 445.917 212.091 443.891 217.544C442.279 221.881 438.183 222.516 437.097 217.256C436.493 214.333 436.569 211.068 436.636 208.063C436.721 204.208 436.945 200.359 437.06 196.504C437.519 181.036 436.923 165.566 437.235 150.092C437.539 134.973 439.482 119.871 437.332 104.853C435.556 92.4519 431.046 81.8025 425.862 71.5932C420.874 61.7708 415.445 52.1872 412.075 41.0144C411.107 37.8056 410.359 34.4805 410 31.0301C410.157 30.9573 410.284 31.0165 410.381 31.2082Z" fill="#C1DEE2"/>
<path fill-rule="evenodd" clip-rule="evenodd" d="M407.974 72.617C409.723 73.88 410.7 75.7276 411.882 77.5505C413.352 79.817 415.081 81.8631 416.551 84.1311C419.615 88.8596 422.308 93.8785 425.102 98.7986C430.406 108.137 434.433 118.091 436.427 128.895C438.495 140.092 439.052 151.648 439.919 163.012C440.839 175.056 441.765 187.188 441.887 199.279C441.942 204.696 442.235 210.446 441.584 215.825C441.179 219.173 439.668 222.027 436.261 222C429.025 221.942 425.627 213.927 424.208 207.354C422.119 197.674 421.702 187.393 422.033 177.494C422.432 165.558 424.504 153.802 425.4 141.912C426.35 129.325 425.814 116.96 421.486 105.109C419.3 99.1198 416.763 93.2743 414.484 87.325C413.514 84.792 412.719 82.19 411.409 79.8313C409.951 77.2076 408.142 74.8259 407 72C407.324 72.2059 407.649 72.4114 407.974 72.617Z" fill="#89C5CC"/>
<path fill-rule="evenodd" clip-rule="evenodd" d="M491.334 47.5177C491.556 47.3452 491.778 47.1728 492 47C491.361 49.6927 490.207 51.8799 489.324 54.3413C488.531 56.5541 488.129 59.0582 487.595 61.4769C486.34 67.1578 484.89 72.7105 483.706 78.4397C481.36 89.7768 481.804 101.99 483.342 114.568C484.795 126.45 487.092 138.313 488.187 150.192C489.095 160.043 489.485 170.202 488.619 179.601C488.031 185.984 486.103 193.606 480.848 192.962C478.374 192.659 477.084 189.681 476.564 186.32C475.729 180.922 475.554 175.246 475.229 169.878C474.502 157.896 474.358 145.951 474.214 134.092C474.078 122.904 473.705 111.494 474.452 100.587C475.173 90.0631 477.428 80.5797 480.653 71.8297C482.351 67.2198 483.97 62.5021 485.878 58.1084C486.793 56.001 487.911 54.1388 488.827 52.033C489.563 50.3392 490.148 48.6011 491.334 47.5177Z" fill="#C1DEE2"/>
<path fill-rule="evenodd" clip-rule="evenodd" d="M410.209 107.302C411.166 105.695 413.272 110.993 413.593 111.66C413.457 111.328 413.321 110.997 413.184 110.667C415.083 113.825 416.821 117.113 417.901 120.734C418.97 124.319 419.888 127.977 420.891 131.587C422.774 138.361 425.202 144.943 426.907 151.778C428.569 158.438 428.988 164.986 428.585 171.875C428.167 179.035 427.911 186.306 428.399 193.462C428.632 196.88 429.743 200.064 430.504 203.354C431.266 206.648 431.866 209.986 432.767 213.239C432.974 212.815 433 214.232 433 214.339C432.994 215.152 432.881 215.833 432.619 216.604C431.948 218.586 430.691 220.269 428.778 220.816C425.322 221.803 422.112 218.659 420.998 215.339C419.399 210.575 418.517 205.311 417.755 200.304C417.057 195.713 416.891 191.094 417.099 186.44C417.508 177.261 419.169 168.202 419.618 159.026C420.107 149.036 418.128 139.649 416.471 129.925C415.673 125.239 414.91 120.598 413.356 116.134C412.727 114.326 411.907 112.731 411.048 111.061C410.558 110.112 409.569 108.418 410.209 107.302Z" fill="#C1DEE2"/>
<path fill-rule="evenodd" clip-rule="evenodd" d="M438.252 91.697C437.856 103.142 437.172 114.5 435.646 125.824C434.089 137.38 432.3 148.897 430.802 160.463C429.343 171.722 427.815 183.168 428.018 194.585C428.168 202.993 426.774 217.219 436.113 221.369C445.572 225.572 447.601 207.623 448.222 201.699C449.412 190.333 449.027 178.847 448.449 167.419C447.856 155.689 446.866 144.02 445.64 132.334C444.277 119.353 443.208 106.314 442.349 93.2959C441.925 86.857 441.82 80.4287 441.937 73.9882C442.048 67.9107 441.817 61.7703 439.656 56C439.543 56.0821 439.431 56.1642 439.318 56.2459" fill="#69A1AC"/>
<path fill-rule="evenodd" clip-rule="evenodd" d="M487.083 127.955C485.382 130.433 483.667 132.887 482.061 135.512C479.186 140.209 476.587 145.432 475.805 152.147C474.169 166.2 475.481 181.379 475.798 195.863C475.863 198.822 475.489 201.693 476.655 204.51C477.713 207.064 479.691 209.01 481.576 209C485.611 208.977 484.995 199.095 485.002 194.746C485.014 187.123 484.159 179.422 484.233 171.806C484.306 164.26 484.765 156.694 485.859 149.528C486.967 142.275 488.589 135.309 490.729 128.81C491.026 127.908 493.158 120.937 491.144 122.139" fill="#89C5CC"/>
<path fill-rule="evenodd" clip-rule="evenodd" d="M469.262 53C466.609 53 466.625 66.226 466.546 67.9248C466.257 74.0554 466.325 80.1876 466.143 86.3194C465.744 99.7008 465.254 113.2 463.243 126.426C462.161 133.547 460.907 140.636 459.557 147.702C458.204 154.789 456.387 161.867 455.497 169.044C454.642 175.943 455.125 182.977 455.242 189.91C455.359 196.885 455.57 203.874 456.484 210.788C456.709 212.494 456.974 214.195 457.257 215.891C457.492 217.305 457.355 219.058 457.754 220.401C458.393 222.552 461.133 223.256 462.978 222.92C467.97 222.009 471.159 215.74 472.865 211.16C475.043 205.311 476.199 198.967 477.339 192.804C478.631 185.821 479.388 178.732 479.743 171.623C480.466 157.175 479.539 142.712 478.504 128.31C477.928 120.301 477.263 112.327 476.246 104.367C475.232 96.441 473.932 88.5505 473.086 80.6013C472.471 74.8246 471.865 69.0401 471.467 63.2413C471.371 61.8586 471.291 53 469.262 53Z" fill="#69A1AC"/>
<path fill-rule="evenodd" clip-rule="evenodd" d="M465.941 149.139C465.508 135.253 459.927 74.2589 458.657 57.4671C458.339 53.2642 455.282 35.7646 454.885 31C453.81 32.3467 453.901 53.3094 453.913 58.1262C453.926 62.8908 453.335 67.5765 453.031 72.3155C452.721 77.151 445.572 139.601 444.645 144.247C442.799 153.491 441.564 162.976 440.611 172.428C439.683 181.639 438.24 191.358 439.482 200.618C439.767 202.75 440.219 204.848 440.955 206.806C441.749 208.922 442.294 210.879 442.932 213.093C443.958 216.659 445.815 219.789 448.668 221.262C454.517 224.281 457.658 217.447 459.251 211.497C461.793 201.995 463.426 192.338 464.191 182.359C465.037 171.318 466.287 160.255 465.941 149.139Z" fill="#89C5CC"/>
<path d="M493 190H406C404.895 190 404 190.895 404 192V279C404 280.105 404.895 281 406 281H493C494.105 281 495 280.105 495 279V192C495 190.895 494.105 190 493 190Z" fill="white"/>
<path d="M402 200H396C394.895 200 394 200.895 394 202V311C394 312.105 394.895 313 396 313H402C403.105 313 404 312.105 404 311V202C404 200.895 403.105 200 402 200Z" fill="#C5CFD6"/>
<path d="M452 200H446C444.895 200 444 200.895 444 202V311C444 312.105 444.895 313 446 313H452C453.105 313 454 312.105 454 311V202C454 200.895 453.105 200 452 200Z" fill="#C5CFD6"/>
<path d="M503 200H497C495.895 200 495 200.895 495 202V311C495 312.105 495.895 313 497 313H503C504.105 313 505 312.105 505 311V202C505 200.895 504.105 200 503 200Z" fill="#C5CFD6"/>
<path d="M276 106C305.271 106 329 82.2711 329 53C329 23.7289 305.271 0 276 0C246.729 0 223 23.7289 223 53C223 82.2711 246.729 106 276 106Z" fill="#F2F2F2"/>
<path fill-rule="evenodd" clip-rule="evenodd" d="M261.862 94.7515C265.15 90.891 267.376 86.1599 267.005 80.8585C265.933 65.5838 244.67 68.9441 240.534 76.6534C236.398 84.3628 236.889 103.918 242.235 105.296C244.366 105.846 248.908 104.5 253.53 101.714L250.629 122.238H267.759L261.862 94.7515Z" fill="#B28B67"/>
<path fill-rule="evenodd" clip-rule="evenodd" d="M232.945 65.9661C233.299 64.7192 234.254 63.6516 235.539 63.3348C235.851 63.258 236.173 63.227 236.494 63.2399C236.609 63.2445 236.641 63.2777 236.695 63.1972C236.735 63.1376 236.736 62.9918 236.752 62.9217C236.804 62.7036 236.867 62.4883 236.946 62.2785C237.215 61.5631 237.667 60.9299 238.213 60.3965C239.232 59.3987 240.61 58.71 242.041 58.5854C242.824 58.5173 243.602 58.6445 244.342 58.8993C244.725 59.0312 245.097 59.1955 245.459 59.3771C245.568 59.4317 245.922 59.6994 246.031 59.6821C246.152 59.663 246.395 59.3627 246.493 59.2873C247.708 58.3556 249.207 57.9893 250.72 58.0002C252.427 58.0131 254.071 58.0984 255.495 59.1392C255.797 59.3595 256.084 59.6008 256.357 59.8548C256.501 59.9885 256.64 60.1273 256.773 60.2718C256.853 60.359 256.932 60.4481 257.007 60.5397C257.134 60.6951 257.114 60.7461 257.293 60.6377C257.978 60.2214 258.772 60.0266 259.572 60.1249C260.047 60.1833 260.509 60.3259 260.948 60.5136C261.097 60.5775 261.443 60.8324 261.602 60.8348C261.76 60.8373 262.101 60.601 262.264 60.541C263.142 60.2166 264.09 60.1366 265.013 60.2865C265.966 60.4412 266.902 60.8213 267.709 61.3467C268.098 61.5994 268.436 61.8793 268.709 62.2551C268.826 62.4173 268.932 62.5889 269.065 62.7393C269.143 62.8274 269.298 62.9178 269.34 63.0292C269.315 62.9625 270.382 62.5511 270.482 62.5248C271.019 62.3847 271.565 62.4131 272.09 62.586C273.078 62.9111 273.927 63.64 274.626 64.3874C274.984 64.7713 275.298 65.1957 275.564 65.6478C275.692 65.8643 275.809 66.0871 275.916 66.3146C275.967 66.4248 276.002 66.5626 276.07 66.6619C276.158 66.7898 276.217 66.7922 276.376 66.848C277.184 67.1312 277.921 67.6106 278.483 68.2584C279.05 68.9137 279.418 69.7207 279.573 70.5706C279.582 70.6207 279.587 70.8281 279.617 70.8552C279.657 70.8925 279.819 70.876 279.881 70.8832C280.094 70.9082 280.305 70.9454 280.514 70.9948C280.899 71.0858 281.273 71.2198 281.627 71.395C283.007 72.078 283.995 73.3584 284.478 74.7992C284.985 76.3113 284.976 78.0436 284.37 79.5274C284.272 79.7671 284.156 79.9997 284.019 80.2198C283.935 80.3549 283.908 80.3552 283.962 80.497C284.023 80.6547 284.134 80.8079 284.206 80.962C284.442 81.4648 284.606 81.9981 284.71 82.5427C284.881 83.4362 284.965 84.3751 284.797 85.2754C284.719 85.6934 284.583 86.102 284.375 86.4743C284.269 86.6642 284.145 86.8442 284.005 87.0108C283.933 87.0972 283.856 87.1798 283.775 87.259C283.729 87.3041 283.668 87.3437 283.629 87.3942C283.533 87.5173 283.513 87.4161 283.562 87.5968C283.631 87.8495 283.788 88.0988 283.884 88.3447C283.983 88.5981 284.072 88.855 284.154 89.1144C284.319 89.6397 284.459 90.1745 284.547 90.7184C284.715 91.7628 284.685 92.8756 284.191 93.8342C283.98 94.2442 283.677 94.6038 283.309 94.8836C283.129 95.0205 282.935 95.1385 282.73 95.2354C282.625 95.2852 282.491 95.3066 282.443 95.4082C282.392 95.5174 282.468 95.7343 282.486 95.8564C282.637 96.9186 282.714 98.0339 282.398 99.0749C282.107 100.034 281.467 100.88 280.635 101.441C279.022 102.528 276.848 102.467 275.154 101.596C274.712 101.369 274.299 101.088 273.93 100.755C272.991 102.019 271.06 101.979 269.688 101.619C267.978 101.17 266.607 99.9818 265.817 98.4202C264.736 99.7356 262.468 99.3088 261.719 97.8818C261.535 97.5325 261.427 97.1476 261.373 96.7581C261.345 96.5533 261.363 96.3466 261.342 96.1434C261.315 95.8845 261.142 95.6329 261.042 95.3824C260.849 94.8949 260.729 94.3913 260.723 93.8655C260.721 93.591 260.755 93.3234 260.782 93.0511C260.805 92.8059 260.737 92.5775 260.698 92.3356C261.137 92.4078 261.671 92.2895 262.084 92.1624C262.489 92.0377 262.869 91.7091 263.155 91.4091C263.819 90.7124 264.225 89.799 264.502 88.89C265.112 86.8949 264.862 84.5012 262.855 83.4062C261.92 82.8962 259.12 82.8978 258.006 83.1499C256.836 83.415 255.508 85.9983 255.443 86.2411C255.403 86.3913 255.423 86.5773 255.285 86.6775C254.981 86.8976 254.481 86.5155 254.257 86.327C253.871 86.0015 253.596 85.5685 253.357 85.1296C252.837 84.1734 252.418 83.1479 252.122 82.1011C251.894 81.294 251.748 80.4618 251.45 79.6753C251.153 78.8927 250.685 78.1932 249.958 77.7498C249.166 77.2676 248.259 77.0136 247.391 76.7105C246.529 76.4101 245.683 76.043 245.016 75.4057C244.869 75.2655 244.726 75.1166 244.608 74.9516C244.515 74.8213 244.423 74.572 244.281 74.4894C244.06 74.3609 243.737 74.695 243.546 74.8163C242.604 75.4149 241.817 76.2497 241.183 77.1617C240.553 78.0687 240.035 78.9414 239.615 79.9542C239.303 80.7054 239.108 81.6674 238.559 82.283C238.315 82.5578 236.494 82.7241 235.904 82.4841C235.315 82.2442 234.654 81.6211 234.456 81.2305C234.253 80.8309 234.205 80.3918 234.292 79.9542C234.342 79.6968 234.446 79.4563 234.503 79.2035C234.551 78.9911 234.595 78.7904 234.698 78.5958C234.894 78.2271 235.229 77.962 235.632 77.8512C235.212 77.4639 234.864 77.0006 234.623 76.4826C234.373 75.9445 234.161 75.2901 234.101 74.6995C234.052 74.2198 234.127 73.7228 234.39 73.3105C234.665 72.8781 235.154 72.596 235.576 72.3262C234.931 71.8216 234.379 71.2078 233.925 70.5284C233.042 69.207 232.496 67.5414 232.945 65.9661Z" fill="#191847"/>
<path fill-rule="evenodd" clip-rule="evenodd" d="M315.58 211.458H233.498C227.191 211.458 222.078 216.57 222.078 222.878V288.543C222.078 294.85 227.191 299.963 233.498 299.963H315.58C321.887 299.963 327 294.85 327 288.543V222.878C327 216.57 321.887 211.458 315.58 211.458ZM304.16 231.443C305.737 231.443 307.015 232.721 307.015 234.298V277.123C307.015 278.7 305.737 279.978 304.16 279.978H244.918C243.341 279.978 242.063 278.7 242.063 277.123V234.298C242.063 232.721 243.341 231.443 244.918 231.443H304.16Z" fill="#C5CFD6"/>
<path fill-rule="evenodd" clip-rule="evenodd" d="M171.038 297.579C180.183 277.338 186.797 259.713 189.452 250.414C193.997 234.492 197.455 220.482 198.329 215.25C200.413 202.773 182.297 202.046 179.902 208.247C176.278 217.632 169.951 248.468 162.348 295.043L171.038 297.579ZM277.117 234.058C268.726 230.741 239.342 220.362 225.171 217.425C221.098 216.582 217.151 215.798 213.44 215.089C202.41 212.984 196.695 232.883 207.319 234.412C233.775 238.219 271.282 242.151 274.492 242.593C278.991 243.211 282.39 236.142 277.117 234.058Z" fill="#B28B67"/>
<path fill-rule="evenodd" clip-rule="evenodd" d="M206.67 209.613L252.056 186.509V181.48H246.658C202.75 192.668 180.312 199.839 179.346 202.991C179.336 203.025 179.327 203.059 179.318 203.093C179.296 203.122 179.274 203.151 179.253 203.18C170.551 215.148 165.34 273.573 163.629 277.948L180.304 280.436C186.682 256.783 207.089 240.306 206.547 211.978C206.693 211.147 206.73 210.359 206.67 209.613Z" fill="#1F28CF"/>
<path fill-rule="evenodd" clip-rule="evenodd" d="M248.285 223.335C252.438 222.503 256.262 221.762 259.534 221.188C280.671 217.48 286.834 206.166 283.19 181.48H244.246C237.885 183.307 204.824 197.172 187.67 204.546C176.317 209.426 179.896 227.021 186.325 231.599C186.36 231.88 186.476 232.071 186.682 232.156C221.267 246.491 248.626 238.969 257.766 241.373L261.993 228.037L248.285 223.335Z" fill="#2B44FF"/>
<path fill-rule="evenodd" clip-rule="evenodd" d="M274.248 231.938C276.514 232.155 278.122 232.495 279.073 232.959C280.23 233.523 281.824 234.539 283.856 236.007C283.201 237.349 277.319 249.41 266.208 272.19C262.641 271.614 261.228 270.253 261.968 268.106C262.708 265.959 263.305 264.167 263.759 262.73L264.464 242.256C264.478 241.862 264.808 241.553 265.202 241.567C265.209 241.567 265.215 241.568 265.222 241.568L268.372 241.766C270.161 240.317 271.342 239.007 271.914 237.834C272.379 236.882 272.636 235.378 272.685 233.325L272.685 233.325C272.704 232.536 273.358 231.913 274.146 231.932C274.18 231.933 274.214 231.935 274.248 231.938Z" fill="#E4E4E4"/>
<path fill-rule="evenodd" clip-rule="evenodd" d="M175.2 293.826C175.999 295.958 176.398 297.553 176.398 298.611C176.398 299.898 176.184 301.776 175.755 304.246C174.262 304.246 160.843 304.246 135.498 304.246C134.451 300.787 135.055 298.92 137.309 298.644C139.563 298.369 141.436 298.12 142.926 297.897L161.638 289.556C161.998 289.395 162.42 289.557 162.58 289.917C162.583 289.923 162.585 289.929 162.588 289.936L163.791 292.853C165.877 293.827 167.573 294.314 168.877 294.314C169.937 294.314 171.401 293.885 173.269 293.029L173.269 293.029C173.985 292.701 174.833 293.015 175.161 293.732C175.175 293.763 175.188 293.794 175.2 293.826Z" fill="#E4E4E4"/>
<path fill-rule="evenodd" clip-rule="evenodd" d="M210.626 170.147L190.407 189.872C184.524 192.381 179.704 195.152 175.946 198.185C175.101 199.204 174.181 201.157 178.157 200.283C182.133 199.409 186.354 198.669 187.101 199.962C187.849 201.254 185.647 203.236 187.028 204.928C187.949 206.056 191.045 202.468 196.317 194.163L217.342 181.767L210.626 170.147ZM300.371 172.929L285.456 172.988C294.665 202.718 299.637 218.493 300.371 220.312C302.023 224.405 298.528 230.639 297.033 233.989C301.901 236.167 301.383 228.1 307.523 230.957C313.128 233.565 317.392 238.289 323.867 234.294C324.664 233.802 325.536 231.953 323.428 230.507C318.176 226.906 310.609 220.604 309.586 218.53C308.192 215.701 305.12 200.5 300.371 172.929Z" fill="#B28B67"/>
<path fill-rule="evenodd" clip-rule="evenodd" d="M257.984 110.341L251.812 109.283C241.186 135.827 222.634 159.947 196.156 181.64L216.164 205.948C242.639 175.059 258.958 143.19 257.984 110.341Z" fill="#191847"/>
<path fill-rule="evenodd" clip-rule="evenodd" d="M284.889 187.904H229.93C242.662 156.945 249.029 130.645 249.029 109.006L265.607 106.536C278.636 127.49 282.316 153.29 284.889 187.904Z" fill="#DDE3E9"/>
<path fill-rule="evenodd" clip-rule="evenodd" d="M265.958 106.547C265.956 106.543 265.954 106.539 265.952 106.536H264.869C263.575 106.58 261.602 106.66 258.953 106.777L254.947 118.225C254.523 132.182 252.048 160.311 247.523 202.611H283.55C283.455 205.533 283.299 208.481 283.082 211.457H309.87C305.863 166.251 291.23 131.277 265.971 106.536L265.958 106.547V106.547Z" fill="#2F3676"/>
<path fill-rule="evenodd" clip-rule="evenodd" d="M281.17 165.23C280.144 183.441 277.577 195.995 273.469 202.892H283.54C283.981 189.79 283.191 177.236 281.17 165.23V165.23Z" fill="black" fill-opacity="0.1"/>
<path fill-rule="evenodd" clip-rule="evenodd" d="M275.531 180.766L257.766 172.507V180.766H275.531Z" fill="white" fill-opacity="0.2"/>
</svg>
