<svg width="260" height="310" viewBox="0 0 260 310" fill="none" xmlns="http://www.w3.org/2000/svg">
<path fill-rule="evenodd" clip-rule="evenodd" d="M181.36 80.1138C177.878 86.7499 171.609 102.481 173.358 105.757L188.214 110.221C188.222 110.192 188.231 110.163 188.239 110.134C193.909 111.105 199.442 107.156 200.961 100.799L203.766 89.0593C205.396 82.2374 201.786 75.2253 195.703 73.3974L194.679 73.0895C189.223 71.45 183.631 74.5377 181.36 80.1138Z" fill="#191847"/>
<path fill-rule="evenodd" clip-rule="evenodd" d="M195.711 96.8911C198.807 94.5205 201.307 91.2261 202.05 86.9164C204.192 74.4991 188.292 72.5939 183.854 77.8524C179.416 83.1109 176.041 98.8183 179.615 101.07C181.04 101.969 184.556 101.874 188.404 100.648L182.41 116.397L194.704 120.092L195.711 96.8911Z" fill="#B28B67"/>
<path fill-rule="evenodd" clip-rule="evenodd" d="M192.879 93.8339C190.697 100.427 189.079 108.22 190.329 110.561L205.184 115.025C209.831 99.2874 200.353 103.074 203.949 88.0227C203.58 87.3311 203.237 86.6534 202.881 86.0509L203.003 85.6132C201.829 78.9861 199.265 75.0783 195.31 73.8899C189.378 72.1072 186.773 74.6128 184.556 76.7388C184.662 81.644 189.127 83.7085 192.561 87.7781C193.15 87.4861 193.83 87.4095 194.503 87.6118C196.059 88.0794 196.986 89.8606 196.572 91.5903C196.159 93.32 194.563 94.3432 193.007 93.8756C192.964 93.8627 192.921 93.8488 192.879 93.8339Z" fill="#191847"/>
<path fill-rule="evenodd" clip-rule="evenodd" d="M208.132 226.228C195.409 230.203 184.433 232.191 175.202 232.191C165.972 232.191 157.398 229.13 149.481 223.007C161.931 218.927 172.184 216.887 180.24 216.887C188.297 216.887 197.594 220 208.132 226.228Z" fill="#1F28CF"/>
<path fill-rule="evenodd" clip-rule="evenodd" d="M164.189 237.921C164.311 237.715 164.415 237.491 164.497 237.248C166.198 232.224 193.437 178.021 196.15 168.111H165.483C163.42 175.646 154.133 222.928 152.827 232.362C148.703 247.242 140.213 295.435 139.129 298.773C137.989 302.286 144.404 305.944 146.114 301.627C148.834 294.756 155.315 275.746 158.201 264.139C160.907 253.257 163.109 243.467 164.189 237.921Z" fill="#997659"/>
<path fill-rule="evenodd" clip-rule="evenodd" d="M189.279 244.539C201.732 248.055 247.283 254.412 250.409 255.409C253.625 256.435 256.444 249.03 252.47 247.426C246.145 244.874 228.719 238.977 218.153 236.57C209.655 234.634 201.9 233.055 196.693 232.13C197.134 215.791 199.151 176.58 197.829 168.111H170.694C171.962 176.232 182.674 235.488 184.666 241.419C185.298 243.537 187.183 244.473 189.279 244.539Z" fill="#B28B67"/>
<path fill-rule="evenodd" clip-rule="evenodd" d="M252.221 245.402C253.884 245.055 255.103 244.958 255.877 245.111C256.819 245.297 258.165 245.745 259.917 246.454C259.724 247.68 257.993 258.692 254.723 279.492C252.057 279.85 250.769 279.084 250.858 277.194C250.947 275.305 251.006 273.732 251.036 272.476L247.346 255.914C247.275 255.595 247.448 255.272 247.732 255.193C247.737 255.191 247.742 255.19 247.747 255.189L250.037 254.624C251.019 253.053 251.594 251.732 251.762 250.661C251.899 249.791 251.774 248.528 251.389 246.871L251.389 246.871C251.241 246.236 251.581 245.586 252.147 245.42C252.172 245.413 252.196 245.407 252.221 245.402Z" fill="#E4E4E4"/>
<path fill-rule="evenodd" clip-rule="evenodd" d="M148.061 301.126C148.654 302.902 148.951 304.231 148.951 305.113C148.951 306.186 148.791 307.751 148.473 309.808C147.363 309.808 137.393 309.808 118.561 309.808C117.784 306.926 118.232 305.37 119.907 305.141C121.582 304.911 122.973 304.703 124.081 304.518L137.983 297.567C138.251 297.433 138.564 297.568 138.684 297.868C138.686 297.873 138.688 297.878 138.69 297.884L139.583 300.315C141.134 301.126 142.393 301.532 143.363 301.532C144.15 301.532 145.238 301.175 146.625 300.462L146.625 300.462C147.158 300.188 147.788 300.45 148.032 301.047C148.042 301.073 148.052 301.099 148.061 301.126Z" fill="#E4E4E4"/>
<path fill-rule="evenodd" clip-rule="evenodd" d="M197.742 168.111C185.784 164.289 174.47 164.289 163.8 168.111C160.088 187.034 151.067 194.544 149.481 223.556C167.512 233.565 189.786 216.417 208.348 226.178C213.652 212.525 206.227 179.644 197.742 168.111Z" fill="#2B44FF"/>
<path fill-rule="evenodd" clip-rule="evenodd" d="M169.451 128.924L153.065 114.258C150.678 109.667 148.196 105.977 145.617 103.188C144.789 102.594 143.265 102.033 144.272 105.219C145.279 108.404 146.209 111.805 145.324 112.55C144.439 113.295 142.777 111.681 141.656 112.988C140.908 113.859 143.836 116.048 150.439 119.554L161.496 135.619L169.451 128.924ZM139.589 132.658L132.393 126.201C132.022 121.236 131.062 118.584 129.512 118.247C128.416 117.391 129.552 123.798 127.371 122.831C125.19 121.863 120.388 116.187 119.29 116.929C117.665 118.028 118.256 122.504 119.404 124.9C121.551 129.378 123.628 131.175 129.009 134.054C131.822 135.56 134.73 138.037 137.733 141.486L139.589 132.658Z" fill="#997659"/>
<path fill-rule="evenodd" clip-rule="evenodd" d="M178.668 128.201C172.33 126.871 164.098 123.7 156.07 115.513L151.133 123.642C156.28 131.776 164.151 139.18 171.851 140.455C177.918 141.46 182.286 133.919 178.668 128.201Z" fill="#2026A2"/>
<path fill-rule="evenodd" clip-rule="evenodd" d="M167.892 140.672C160.856 141.215 149.9 136.767 135.023 127.328C129.659 135.636 126.821 141.755 126.509 145.683C138.873 156.31 149.984 162.155 159.559 164.29C158.253 170.594 157.995 176.788 159.457 182.782C162.462 195.107 192.191 190.123 201.304 194.063C210.582 173.809 200.523 162.842 202.668 149.133C205.018 134.12 197.851 108.878 196.262 108.563L181.77 105.698C179.168 117.004 173.157 128.843 167.892 140.672Z" fill="#1F28CF"/>
<g filter="url(#filter0_f)">
<circle cx="106.5" cy="27.5" r="12.5" fill="url(#paint0_linear)"/>
</g>
<g filter="url(#filter1_f)">
<circle cx="27.5" cy="53.5" r="12.5" fill="url(#paint1_linear)"/>
</g>
<circle cx="28.5" cy="44.5" r="12.5" fill="url(#paint2_linear)"/>
<circle cx="108.5" cy="16.5" r="12.5" fill="url(#paint3_linear)"/>
<g filter="url(#filter2_f)">
<circle cx="59.5" cy="110.5" r="12.5" fill="url(#paint4_linear)"/>
</g>
<g filter="url(#filter3_f)">
<circle cx="105.5" cy="76.5" r="12.5" fill="url(#paint5_linear)"/>
</g>
<circle cx="108.5" cy="65.5" r="12.5" fill="url(#paint6_linear)"/>
<circle cx="59.5" cy="101.5" r="12.5" fill="url(#paint7_linear)"/>
<defs>
<filter id="filter0_f" x="79" y="0" width="55" height="55" filterUnits="userSpaceOnUse" color-interpolation-filters="sRGB">
<feFlood flood-opacity="0" result="BackgroundImageFix"/>
<feBlend mode="normal" in="SourceGraphic" in2="BackgroundImageFix" result="shape"/>
<feGaussianBlur stdDeviation="7.5" result="effect1_foregroundBlur"/>
</filter>
<filter id="filter1_f" x="0" y="26" width="55" height="55" filterUnits="userSpaceOnUse" color-interpolation-filters="sRGB">
<feFlood flood-opacity="0" result="BackgroundImageFix"/>
<feBlend mode="normal" in="SourceGraphic" in2="BackgroundImageFix" result="shape"/>
<feGaussianBlur stdDeviation="7.5" result="effect1_foregroundBlur"/>
</filter>
<filter id="filter2_f" x="32" y="83" width="55" height="55" filterUnits="userSpaceOnUse" color-interpolation-filters="sRGB">
<feFlood flood-opacity="0" result="BackgroundImageFix"/>
<feBlend mode="normal" in="SourceGraphic" in2="BackgroundImageFix" result="shape"/>
<feGaussianBlur stdDeviation="7.5" result="effect1_foregroundBlur"/>
</filter>
<filter id="filter3_f" x="78" y="49" width="55" height="55" filterUnits="userSpaceOnUse" color-interpolation-filters="sRGB">
<feFlood flood-opacity="0" result="BackgroundImageFix"/>
<feBlend mode="normal" in="SourceGraphic" in2="BackgroundImageFix" result="shape"/>
<feGaussianBlur stdDeviation="7.5" result="effect1_foregroundBlur"/>
</filter>
<linearGradient id="paint0_linear" x1="94" y1="27.5" x2="119" y2="27.5" gradientUnits="userSpaceOnUse">
<stop stop-opacity="0.8"/>
</linearGradient>
<linearGradient id="paint1_linear" x1="15" y1="53.5" x2="40" y2="53.5" gradientUnits="userSpaceOnUse">
<stop stop-opacity="0.8"/>
</linearGradient>
<linearGradient id="paint2_linear" x1="16" y1="44.5" x2="41" y2="44.5" gradientUnits="userSpaceOnUse">
<stop stop-color="#F0D907"/>
<stop offset="1" stop-color="#E4E5E6"/>
</linearGradient>
<linearGradient id="paint3_linear" x1="96" y1="16.5" x2="121" y2="16.5" gradientUnits="userSpaceOnUse">
<stop stop-color="#F0D907"/>
<stop offset="1" stop-color="#E4E5E6"/>
</linearGradient>
<linearGradient id="paint4_linear" x1="47" y1="110.5" x2="72" y2="110.5" gradientUnits="userSpaceOnUse">
<stop stop-opacity="0.8"/>
</linearGradient>
<linearGradient id="paint5_linear" x1="93" y1="76.5" x2="118" y2="76.5" gradientUnits="userSpaceOnUse">
<stop stop-opacity="0.8"/>
</linearGradient>
<linearGradient id="paint6_linear" x1="96" y1="65.5" x2="121" y2="65.5" gradientUnits="userSpaceOnUse">
<stop stop-color="#F0D907"/>
<stop offset="1" stop-color="#E4E5E6"/>
</linearGradient>
<linearGradient id="paint7_linear" x1="47" y1="101.5" x2="72" y2="101.5" gradientUnits="userSpaceOnUse">
<stop stop-color="#F0D907"/>
<stop offset="1" stop-color="#E4E5E6"/>
</linearGradient>
</defs>
</svg>
